<svg width="128" height="128" viewBox="0 0 128 128" fill="none" xmlns="http://www.w3.org/2000/svg">
<circle cx="64" cy="64" r="64" fill="#D9D9D9"/>
<circle cx="64" cy="64" r="53" fill="black"/>
<rect x="61" y="39" width="6" height="50" fill="#D9D9D9"/>
<rect x="74" y="44" width="6" height="40" fill="#D9D9D9"/>
<rect x="48" y="44" width="6" height="40" fill="#D9D9D9"/>
<rect x="87" y="51" width="6" height="30" fill="#D9D9D9"/>
<rect x="35" y="49" width="6" height="30" fill="#D9D9D9"/>
<circle cx="38" cy="49" r="3" fill="#D9D9D9"/>
<circle cx="22" cy="64" r="6" fill="#D9D9D9"/>
<circle cx="106" cy="64" r="6" fill="#D9D9D9"/>
<circle cx="38" cy="79" r="3" fill="#D9D9D9"/>
<circle cx="51" cy="84" r="3" fill="#D9D9D9"/>
<circle cx="64" cy="89" r="3" fill="#D9D9D9"/>
<circle cx="51" cy="44" r="3" fill="#D9D9D9"/>
<circle cx="64" cy="39" r="3" fill="#D9D9D9"/>
<circle cx="77" cy="44" r="3" fill="#D9D9D9"/>
<circle cx="90" cy="51" r="3" fill="#D9D9D9"/>
<circle cx="90" cy="81" r="3" fill="#D9D9D9"/>
<circle cx="77" cy="84" r="3" fill="#D9D9D9"/>
</svg>
